<svg xmlns="http://www.w3.org/2000/svg" width="187" height="136" viewBox="0 0 187 136">
  <metadata><?xpacket begin="﻿" id="W5M0MpCehiHzreSzNTczkc9d"?>
<x:xmpmeta xmlns:x="adobe:ns:meta/" x:xmptk="Adobe XMP Core 5.6-c138 79.159824, 2016/09/14-01:09:01        ">
   <rdf:RDF xmlns:rdf="http://www.w3.org/1999/02/22-rdf-syntax-ns#">
      <rdf:Description rdf:about=""/>
   </rdf:RDF>
</x:xmpmeta>
                                                                                                    
                                                                                                    
                                                                                                    
                                                                                                    
                                                                                                    
                                                                                                    
                                                                                                    
                                                                                                    
                                                                                                    
                                                                                                    
                                                                                                    
                                                                                                    
                                                                                                    
                                                                                                    
                                                                                                    
                                                                                                    
                                                                                                    
                                                                                                    
                                                                                                    
                                                                                                    
                           
<?xpacket end="w"?></metadata>
<defs>
    <style>
      .cls-1 {
        fill-rule: evenodd;
      }
    </style>
  </defs>
  <path id="Muoto_1" data-name="Muoto 1" class="cls-1" d="M35,92H152a16.015,16.015,0,0,1-3,4,19.172,19.172,0,0,1-3,2H40a12.071,12.071,0,0,1-2.733-2.731A33.257,33.257,0,0,0,35,92Z"/>
  <path id="Muoto_2" data-name="Muoto 2" class="cls-1" d="M157,86a29.942,29.942,0,0,0,3-3,17.448,17.448,0,0,0,2-3H25a23.376,23.376,0,0,0,2,4,7.956,7.956,0,0,0,2,2H157Z"/>
  <path id="Muoto_3" data-name="Muoto 3" class="cls-1" d="M49,104H81v14a129.2,129.2,0,0,1-16-5A77.857,77.857,0,0,1,49,104Z"/>
  <path id="Muoto_4" data-name="Muoto 4" class="cls-1" d="M105,104h32a49.427,49.427,0,0,1-14,9c-7.94,3.226-18,4-18,4V104Z"/>
  <path id="Muoto_5" data-name="Muoto 5" class="cls-1" d="M93,118a29.047,29.047,0,0,0,6-6,35.2,35.2,0,0,0,4-8H83a51.271,51.271,0,0,0,4,8A24.511,24.511,0,0,0,93,118Z"/>
  <path id="Muoto_6" data-name="Muoto 6" class="cls-1" d="M73,73h40s2.124-22.835-3-40C105.13,16.687,93,6,93,6A72.433,72.433,0,0,0,76.85,32.807C71.364,49.825,72.937,72.952,73,73Z"/>
  <path id="Muoto_7" data-name="Muoto 7" class="cls-1" d="M118,73h47a78.772,78.772,0,0,0,7-17,74.211,74.211,0,0,0,2-18s-16.554,1.229-31,10C129.476,56.211,118,73,118,73Z"/>
  <path id="Muoto_8" data-name="Muoto 8" class="cls-1" d="M22,73H68S56.622,56.477,42,47c-12.147-7.873-28-9-28-9a66.657,66.657,0,0,0,1,19A54.778,54.778,0,0,0,22,73Z"/>
</svg>
