<svg xmlns="http://www.w3.org/2000/svg" width="1200" height="1051" viewBox="0 0 1200 1051">
  <metadata><?xpacket begin="﻿" id="W5M0MpCehiHzreSzNTczkc9d"?>
<x:xmpmeta xmlns:x="adobe:ns:meta/" x:xmptk="Adobe XMP Core 5.6-c138 79.159824, 2016/09/14-01:09:01        ">
   <rdf:RDF xmlns:rdf="http://www.w3.org/1999/02/22-rdf-syntax-ns#">
      <rdf:Description rdf:about=""/>
   </rdf:RDF>
</x:xmpmeta>
                                                                                                    
                                                                                                    
                                                                                                    
                                                                                                    
                                                                                                    
                                                                                                    
                                                                                                    
                                                                                                    
                                                                                                    
                                                                                                    
                                                                                                    
                                                                                                    
                                                                                                    
                                                                                                    
                                                                                                    
                                                                                                    
                                                                                                    
                                                                                                    
                                                                                                    
                                                                                                    
                           
<?xpacket end="w"?></metadata>
<defs>
    <style>
      .cls-1 {
        fill: #ffea00;
        fill-rule: evenodd;
      }
    </style>
  </defs>
  <path id="Muoto_1" data-name="Muoto 1" class="cls-1" d="M5,1041l148,1s2.941-408.518,56-685c17.344-90.377,46.028-188.8,73-235,29.15-49.934,56-44,56-44s34.579-6.685,68,56c27.964,52.45,53.736,166.613,71,248,53.77,253.485,50,587,50,587H672s-6.111-323.3,49-587c10.179-48.7,36.057-173.084,59-222,39.027-83.208,78-81,78-81s43.554-1.8,76,72c36.408,82.81,62.76,245.3,75,308,55.15,282.5,37,583,37,583l151,5s-3.62-543.459-135-842c-23.96-54.44-59.87-120.284-98-155C920.939,10.794,861,3,861,3s-49.518.5-98,39c-15.54,12.342-56.628,65.888-71,89-52.677,84.712-92,232-92,232s-65.533-188.907-98-239c-25.235-38.935-50.608-65.089-72-83C384.151,2.612,349,5,349,5s-40.284-7.325-95.026,37.872C220.14,70.807,180.783,118.806,142,201,7.979,485.037,5,1041,5,1041Z"/>
</svg>
